<svg xmlns="http://www.w3.org/2000/svg" version="1.1" xmlns:xlink="http://www.w3.org/1999/xlink" xmlns:svgjs="http://svgjs.dev/svgjs" width="2540" height="5000" preserveAspectRatio="none" viewBox="0 0 2540 5000"><g mask="url(&quot;#SvgjsMask1133&quot;)" fill="none"><rect width="2540" height="5000" x="0" y="0" fill="rgba(188, 205, 230, 1)"></rect><path d="M0,1663.478C304.906,1620.014,566.94,1450.143,812.39,1264.103C1042.187,1089.927,1255.711,890.376,1369.527,625.442C1481.868,363.941,1441.356,76.878,1444.684,-207.714C1448.659,-547.57,1553.468,-906.755,1390.936,-1205.253C1217.126,-1524.464,903.754,-1795.896,545.75,-1858.655C194.566,-1920.219,-113.444,-1649.396,-448.581,-1527.727C-758.853,-1415.085,-1124.142,-1410.462,-1350.517,-1170.23C-1579.677,-927.042,-1649.677,-572.974,-1662.888,-239.087C-1675.272,73.899,-1536.471,357.875,-1422.522,649.644C-1301.566,959.356,-1247.012,1326.099,-976.249,1519.073C-702.828,1713.941,-332.397,1710.861,0,1663.478" fill="#527ebe"></path><path d="M2540 7122.303C2933.352 7098.874 3283.755 6881.982 3590.571 6634.72 3874.547 6405.865 4039.577 6084.086 4220.924 5767.652 4421.057 5418.439 4780.156 5084.177 4705.889999999999 4688.592 4631.402 4291.825 4167.224 4118.636 3861.786 3854.666 3602.818 3630.857 3349.783 3426.181 3051.308 3258.6459999999997 2670.346 3044.8109999999997 2306.397 2662.574 1876.4969999999998 2740.317 1448.855 2817.652 1245.867 3303.648 965.6479999999999 3635.816 689.432 3963.239 351.6669999999999 4254.803 248.19500000000016 4670.488 139.52599999999984 5107.052 162.971 5592.42 380.60199999999986 5986.164 592.4839999999999 6369.507 1018.173 6560.909 1405.798 6764.853 1763.856 6953.241 2136.123 7146.359 2540 7122.303" fill="#ffffff"></path></g><defs><mask id="SvgjsMask1133"><rect width="2540" height="5000" fill="#ffffff"></rect></mask></defs></svg>