<?xml version="1.0" encoding="UTF-8"?>
<svg id="_图层_1" data-name="图层 1" xmlns="http://www.w3.org/2000/svg" viewBox="0 0 992.13 992.13">
  <defs>
    <style>
      .cls-1 {
        fill: #fff;
        stroke-width: 0px;
      }
    </style>
  </defs>
  <g>
    <path class="cls-1" d="M221.54,664.14c0-5.13-.29-8.42-.86-9.86-.68-1.37-2.25-2.16-4.71-2.38l-2.73-.55c-.48-.44-.68-1.09-.61-1.93,0-.88.28-1.53.83-1.93,5.39.22,10.79.33,16.22.33s10.87-.11,16.22-.33c.44.41.66,1.05.66,1.93s-.22,1.49-.66,1.93l-2.67.44c-2.31.22-3.84,1.05-4.58,2.49-.71,1.44-1.03,4.73-.96,9.86v26.19c0,3.32.18,6.57.53,9.75.39,3.36,1.15,6.39,2.29,9.08,1.17,2.66,3,4.82,5.49,6.48,2.38,1.74,5.61,2.6,9.7,2.6,6.93-.07,11.73-2.86,14.39-8.36,2.63-5.32,3.91-11.94,3.84-19.88v-13.73c0-4.76-.11-9.03-.32-12.79-.21-3.69-.66-6.33-1.33-7.92-1.07-2.14-3.18-3.36-6.34-3.65l-2.93-.55c-.37-.52-.55-1.2-.55-2.04s.18-1.42.55-1.82c5.62.22,10.51.33,14.67.33s8.05-.11,12.22-.33c.37.41.59,1.01.66,1.82,0,.85-.22,1.53-.66,2.04l-1.99.44c-1.4.3-2.61.68-3.65,1.16-.93.52-1.7,1.38-2.31,2.6-.57,1.59-.96,4.22-1.18,7.91-.29,3.76-.43,8.02-.43,12.78v12.73c0,5.35-.41,10.33-1.24,14.94-.86,4.68-2.79,8.8-5.8,12.34-5.23,5.39-12.51,8.11-21.82,8.19-4.16,0-8.08-.46-11.77-1.37-3.65-.88-6.99-2.52-10-4.93-5.52-4.84-8.24-13.38-8.17-25.64v-28.35Z"/>
    <path class="cls-1" d="M328.19,656.28c0-1.37-.11-2.27-.32-2.71-.29-.37-1.06-.55-2.31-.55h-6.81c-3.79,0-6.61,1.09-8.47,3.27-1.89,2.1-3.61,5.28-5.15,9.52-.64.37-1.38.44-2.2.22-.79-.15-1.41-.55-1.88-1.21,1.19-4.01,2.03-7.67,2.54-10.98.47-3.31.84-6.07,1.13-8.28.43-.37.95-.55,1.57-.55.57,0,1.08.15,1.51.44.14.48.38.83.7,1.05.22.3.58.55,1.08.77,1.04.37,3.54.55,7.5.55h41.1c3.6,0,6.06-.15,7.39-.44,1.33-.29,2.18-.98,2.54-2.05.39-.22.88-.33,1.46-.33.83.07,1.38.35,1.67.83-.61,2.02-1.02,4.88-1.23,8.56-.36,3.79-.5,7.41-.43,10.87-.29.44-.95.7-1.98.77-.93.15-1.62,0-2.09-.44-.43-1.81-.86-3.51-1.29-5.09-.54-1.51-1.23-2.84-2.09-3.99-.75-1.14-1.79-2.05-3.11-2.71-1.36-.52-3.07-.78-5.14-.78h-6.59c-1.21,0-2.02.15-2.41.44-.36.44-.54,1.38-.54,2.82v50c-.07,4.98.25,8.2.96,9.64.75,1.37,2.28,2.2,4.6,2.49l4.39.55c.48.41.72,1.05.72,1.93s-.24,1.6-.72,2.04c-7.02-.22-12.93-.33-17.74-.33-5.06,0-11.36.11-18.88.33-.48-.44-.72-1.12-.72-2.04s.24-1.53.72-1.93l4.94-.55c2.47-.3,4.04-1.13,4.72-2.49.57-1.44.86-4.65.86-9.64v-50Z"/>
    <path class="cls-1" d="M384.05,651.46c-.48-.52-.68-1.27-.61-2.27,0-.92.31-1.49.93-1.71,3.86.22,8.56.33,14.09.33,3.5.07,7.14-.04,10.92-.33,0,3.39.89,7.03,2.66,10.9,1.6,3.84,3.58,8.41,5.96,13.72l7.19,15.93c1.77,3.58,3.74,7.43,5.91,11.56.71-1.29,1.54-2.99,2.5-5.09,1.03-1.95,2.24-4.55,3.62-7.8l5.54-12.45c4.79-9.92,8.14-18.85,10.06-26.78,4.79.29,8.68.41,11.66.33,3.97,0,8.14-.11,12.51-.33.69.41,1.04.98,1.04,1.71,0,.85-.24,1.6-.72,2.27l-3.17.55c-2.22.3-3.87.98-4.95,2.05-1.18,1.14-1.77,3.19-1.77,6.14,0,21.14.29,37.75.86,49.85.07,2.55.41,4.5,1.02,5.87.57,1.36,1.9,2.23,3.98,2.6l3.5.44c.44.55.66,1.23.66,2.04,0,1-.29,1.64-.88,1.93-4.89-.22-9.94-.33-15.15-.33s-10.65.11-16.22.33c-.66-.37-.98-1.05-.98-2.04-.07-.88.15-1.53.66-1.93l3.28-.44c2.37-.44,3.85-1.24,4.45-2.38.37-1.11.55-3.3.55-6.58l-.22-29.43v-12.89h-.22c-8.51,18.18-16.58,36.9-24.2,56.15-.57.48-1.31.76-2.2.83-1.11,0-2.06-.24-2.84-.72-2.43-7.52-6.1-16.83-11-27.93-4.9-10.95-9.07-20.39-12.5-28.32h-.21c-.46,6.64-.72,12.52-.79,17.65-.14,8.78-.21,17.28-.21,25.5-.07,2.73.29,4.61,1.08,5.64.6,1.14,2.02,1.9,4.26,2.27l4.54.66c.44.41.66,1.05.66,1.93-.15.99-.44,1.68-.88,2.04-4.33-.22-8.72-.33-13.2-.33-3.71,0-7.91.11-12.59.33-.66-.37-.99-1.05-.99-2.04-.07-.88.11-1.53.55-1.93l1.98-.33c2.74-.44,4.49-1.2,5.24-2.27.64-.96,1.09-3.1,1.34-6.42.5-6.12,1.07-14.85,1.71-26.17.53-8.41.8-16.04.8-22.91,0-3.17-.55-5.4-1.66-6.69-1.25-1.14-2.95-1.9-5.12-2.27l-2.41-.44Z"/>
    <path class="cls-1" d="M537.96,646.04c5.65.07,10.4.52,14.26,1.33,3.9.85,6.68,1.38,8.36,1.6-.07,3.61.36,9.5,1.29,17.64-.29.7-.89,1.13-1.82,1.27-.96.15-1.73,0-2.3-.44-3-10.73-9.88-16.14-20.64-16.21-6.33,0-12.05,2.67-17.17,8.02-5.26,5.53-7.96,13.96-8.1,25.29.14,11.25,2.81,19.83,7.99,25.73,5.04,5.98,10.97,8.96,17.8,8.96,3.36,0,6.29-.61,8.79-1.83,2.47-1.07,4.58-2.47,6.33-4.21,3.47-3.62,5.9-7.47,7.29-11.56.5-.44,1.23-.63,2.2-.55.93.22,1.57.66,1.93,1.33-1,8.85-2.37,14.79-4.12,17.82-3,.85-6.37,1.71-10.12,2.6-3.78.99-7.83,1.53-12.15,1.6-11.35.07-21.18-2.8-29.5-8.63-4.03-3.17-7.32-7.17-9.85-12-2.71-4.83-4.07-10.71-4.07-17.65,0-3.5.36-6.71,1.07-9.63.68-2.95,1.6-5.68,2.78-8.19,1.21-2.51,2.62-4.78,4.23-6.8,1.53-2.03,3.26-3.83,5.19-5.42,8.31-6.71,18.42-10.07,30.33-10.07Z"/>
    <path class="cls-1" d="M598.06,696.99c-1.25,0-2.05.07-2.41.22-.5.29-.89.98-1.18,2.05l-4.07,13.17c-.61,2.03-.88,3.38-.8,4.04,0,.41.3.72.91.94.5.3,1.52.63,3.05,1l3.32.55c.36.41.54,1.05.54,1.93,0,.99-.25,1.68-.75,2.04-3.89-.15-8.18-.26-12.86-.33-3.07.07-6.84.18-11.3.33-.51-.44-.76-1.09-.76-1.93-.07-.81.07-1.49.44-2.04l2.95-.33c1.39-.15,2.64-.59,3.75-1.33,1.07-.77,2.05-2.21,2.95-4.32,1.75-4.24,4.02-10.29,6.8-18.15l9.86-27.61c2.93-6.75,4.36-11.54,4.29-14.38,2.71-.92,4.98-2.25,6.8-3.98,1.68-1.73,2.59-2.67,2.73-2.82,1.32,0,2.16.74,2.52,2.21.75,2.77,2.41,7.94,4.98,15.5l14.89,44.46c.68,1.66,1.27,3.06,1.77,4.21.43,1.18.91,2.2,1.45,3.04.86,1.51,2.23,2.46,4.12,2.82l4.18.66c.37.33.59.94.66,1.83,0,1-.26,1.72-.77,2.16-5.39-.22-11.02-.33-16.88-.33-5.14,0-10.09.11-14.84.33-.57-.44-.86-1.09-.86-1.93-.07-.81.14-1.49.64-2.04l3.54-.55c1.32-.22,2.16-.52,2.52-.88.29-.37.43-.72.43-1.05,0-.88-.7-3.45-2.09-7.69l-2.95-9.74c-.14-.92-.59-1.53-1.34-1.83-.71-.15-2.02-.22-3.91-.22h-12.32ZM609.79,691.02c1.32,0,2.16-.2,2.53-.61.41-.37.29-1.27-.33-2.72l-2.84-9.2c-1.61-5.21-2.93-9.18-3.96-11.91-1.25,2.81-2.75,6.98-4.5,12.52l-2.73,8.48c-.59,1.44-.66,2.35-.22,2.71.36.55,1.2.79,2.53.72h9.54Z"/>
    <path class="cls-1" d="M664.57,666.18c.11-5.57-.1-9.15-.64-10.73-.57-1.59-1.97-2.45-4.19-2.6l-3.38-.5c-.44-.44-.66-1.07-.66-1.88,0-.92.29-1.57.88-1.93,7.36-.63,15.85-.98,25.47-1.05,9.12.08,15.85,1.07,20.2,2.99,3.57,1.18,6.67,3.36,9.31,6.53,2.64,3.17,4,7.52,4.07,13.06-.07,4.61-1.03,8.3-2.88,11.06-1.81,2.8-4.07,4.96-6.77,6.47-2.67,1.44-5.28,2.42-7.83,2.93-2.63.55-4.74.83-6.34.83-1.24,0-2.4-.04-3.46-.11-.47-.37-.71-.9-.71-1.6-.07-.59.06-1.09.39-1.49,4.38-1.59,7.32-3.93,8.84-7.03,1.38-3.06,2.03-6.71,1.96-10.96,0-4.46-1.08-8.43-3.23-11.9-2.26-3.54-5.8-5.4-10.64-5.59-1.87,0-3.05.39-3.55,1.16-.53.81-.76,2.36-.69,4.65v47.81c-.07,4.98.26,8.19,1.01,9.63.71,1.51,2.22,2.38,4.55,2.6l3.44.61c.7.29,1.05.88,1.05,1.77s-.35,1.6-1.05,2.04c-6.06-.22-11.71-.33-16.95-.33s-10.7.11-16.62.33c-.62-.44-.94-1.12-.94-2.04-.07-.88.17-1.47.72-1.77l3.06-.61c2.5-.22,4.08-1.09,4.72-2.6.57-1.44.86-4.65.86-9.63v-40.12Z"/>
    <path class="cls-1" d="M779.52,701.42c-.07,7.04-2.59,12.59-7.56,16.65-4.93,4.17-11.63,6.29-20.09,6.36-5.07-.07-9.15-.65-12.22-1.71-3.07-1-5.22-1.86-6.43-2.6-.46-.66-.9-1.64-1.33-2.93-.42-1.29-.78-2.73-1.06-4.31-.74-3.39-1.12-7.1-1.12-11.12.5-.81,1.23-1.25,2.2-1.33.82,0,1.48.33,1.98,1,1.18,3.95,3.45,7.8,6.8,11.56,1.68,1.81,3.54,3.28,5.57,4.43,2,1.22,4.16,1.83,6.48,1.83,4.04-.07,7.04-1.29,9-3.65,1.89-2.25,2.84-4.85,2.84-7.8,0-2.36-.43-4.48-1.29-6.36-.97-1.81-2.18-3.43-3.65-4.87-3.15-2.88-6.47-5.15-9.97-6.8-4.11-2.03-7.81-4.81-11.1-8.35-3.36-3.65-5.18-8.22-5.47-13.72.21-13.98,8.7-21.19,25.45-21.63,3.79,0,7.95.59,12.49,1.77,1.32.41,2.57.72,3.75.94,1.18,2.88,1.84,8.28,1.98,16.21-.32.66-.95,1-1.88,1-.96.07-1.77-.15-2.41-.66-.89-3.17-2.54-6.27-4.93-9.29-1.18-1.44-2.54-2.62-4.07-3.54-1.68-.81-3.52-1.22-5.52-1.22-3.57.07-6.31,1.09-8.2,3.04-1.96,2.03-2.95,4.52-2.95,7.47,0,2.66,1.02,5.07,3.05,7.25,1.82,2.29,4.13,4.19,6.91,5.7l7.24,3.93c3.64,1.77,7.13,4.46,10.45,8.08,3.22,3.61,4.9,8.52,5.04,14.72Z"/>
  </g>
  <g>
    <g>
      <path class="cls-1" d="M469.28,525.67c-.64,1.81-1.24,3.66-1.81,5.57-2.55,8.52-4.38,16.36-5.54,23.58-.63,3.91-1.05,7.63-1.29,11.18,6.38-11.73,22.97-18.69,40.64-17.92.59-3.55,1.44-7.17,2.47-10.82,5.81-.15,12.97-.33,21.83-.56,59.06-1.51,106.18-40.46,81.27-86.99-11.67-21.79-33.42-34.96-56.78-35.12-32.74-.22-69.56,22.23-71.39,58.53-.37,7.44.54,14.96,2.7,22.09.3.98.99,2.3,1.65,3.65-4.02,5.65-7.71,12.08-10.86,19.41,2.17-8.31,1.71-18.92-3.71-32.14-16.18-39.44-55.41-28.7-55.41-28.7-56.08,23.23-41.16,90.84-35.13,111.41,1.47,5.02,5.84,8.81,11.07,9.1,11.05.61,13.04-14.29,9.05-29.2-1.33-4.98-1.82-12.55-1.39-20.94,13.4,2.83,28.7-7.66,39.4-17.23-.74,3.84-1.66,7.29-2.49,9.89-3.96,12.38,1.53,22.67,12.36,22.07,6.02-.34,17.28-5.54,23.34-16.86ZM536.35,439.9c26.21,0,47.96,17.78,28.7,54.71-12.63,24.22-38.16,25.67-54.24,23.8,15.07-33.44,37.76-59.69,37.76-59.69,0,0-37.6,3.66-63.43,37.29,4-26.24,27.25-56.1,51.21-56.1ZM399.64,506.46c3.73-15.89,10.89-29.62,21.98-29.86,11.29-.24,15.17,8.1,15.74,17.94-14.22,13.12-28.3,13.76-37.72,11.92Z"/>
      <path class="cls-1" d="M292.65,362.72c-1.23,2.81-4.55,5.04-2.69,5.32,1.86.27,33.54-4.3,41.12-5.91,7.58-1.6,12.06,1.23,14.02-2.83l3.46-12.11s.36-.48,1.03-1.35c6.55-8.63,42.14-56.05,42.88-67.79.82-12.93-15.47-13.16-17.37-3.92-1.91,9.24-19.2,39.87-21.91,41.65-2.71,1.78,4.88-27.57-4.17-28.9-9.05-1.33-10.15,15.37-7.76,24.97,2.39,9.6-.9,22.71-5.48,26.12-4.58,3.4-6.7,8.53-15.7,5.03-9-3.5-13.51-.63-19.03,1.82-5.53,2.45-7.17,15.1-8.4,17.91Z"/>
      <path class="cls-1" d="M238.14,443.12c.39,10.46,15.11,7.1,15.11,7.1,0,0-9.6-1.38-10.24-9-.26-3.09-1.97-6.35-3.9-9.15,1.3.35,2.76.78,4.45,1.34,9.3,3.07,16.27,2.95,21.49,2.21-.81,3.43-2.89,8.06-8.27,8.7,0,0,10.03-.87,14.76-9.93.38-.08.75-.15,1.1-.2,2.27-.37,9.6-2.4,19.39-4.66,2.98-1.22,5.98-2.34,9-3.34,3.75-1.24,7.53-2.25,11.34-3.07,2.91-1.78,5.93-3.34,9.32-4.31,5.77-1.65,11.85-1.46,17.78-1.63,5.29-.15,10.51-.24,15.69.57,5.1-.08,10.23.14,15.28.65,5.75.59,11.65,1.62,17.07,3.53,2.05,2.56,5.55,3.67,8.6,4.14,1,.65,1.97,1.35,2.89,2.1,4.41.33,8.65.46,12.68.27-.2-.65-.36-1.31-.51-1.97,6.81-2.05,5.25-7.03,5.25-7.03,0,0,5.43-3.21.99-9.35-4.44-6.13-10.95.29-10.95.29.15,0,.3.02.45.03,8.5.63,3.84,7.07,3.84,7.07-.41.15-.81.27-1.19.38-3.33-2.17-6.8-5.85-7.99-12.09-.14-.73-.2-1.5-.22-2.28,2.35.48,5.94.97,10.02.67,7.19-.53,6.22-5.17,4.47-6.22-1.75-1.05-6.75,3.33-11.65.53-.78-.44-1.36-.95-1.82-1.47.39-1.2.9-2.4,1.51-3.57,4.37,3.4,10.56,1.97,10.56,1.97,14.9,2.37,18.05-4.03,15.42-11.13-2.63-7.1-12.53-2.72-12.53-2.72,8.41.7,6.13,8.32,0,7.71-6.13-.61-4.73-1.23-2.45-12.62,2.28-11.39-7.1-15.69-7.45-17.26l-6.27,1.1c-.25-.28-.25-.29-.25-.29,0,0,47.83-21.26,73.33-61.39,0,0,1.76-6.99-3.05-11.33-4.8-4.33-14.23,19.03-33.1,27.13,0,0,6.44-16.05.9-19.04-5.54-2.99-9.91,9.15-11.26,16.43-1.34,7.28-34.26,39.63-34.26,39.63,0,0-14.45-6.21-22.04-2.7-7.59,3.51-8.98,9.28-16.64,11.42-7.66,2.14-51.33,8.75-51.33,8.75,0,0-49.43,8.76-59.96,6.4-7.76-1.74-14.02-5.62-22.1-6.91-1.01-3.62-1.28-7.56-.79-11.16,1.44-10.78,10.19-17.68,20.47-19.62,11.99-2.26,24.19.24,36.24.3,5.37.03,10.74-.47,15.74-2.55,5.62-2.35,9.76-6.57,12.57-11.94,4.19-8.01,5.26-18.34,2.81-27.1-.34-1.21-6.29,1.04-5.82,2.71,2.05,7.34,1.5,15.93-1.23,22.98-1.22,3.14-2.98,6.15-5.24,8.66-.65.72-1.31,1.32-2.08,1.84-.04,0-1.17.63-.61.36-.67.33-.37.21-1.18.49-4.2,1.49-9.8,1.33-14.51,1.12-12.33-.56-24.88-2.46-37.03.67-10.96,2.82-22.61,9.96-25.49,21.63-.87,3.52-.97,7.44-.36,11.2-.96.03-1.95.09-2.98.22-1.12.13-2.1.31-2.99.53-.16-.44-.33-.88-.48-1.33-1.7-4.91-3.01-9.99-3.63-15.16-.62-5.23-.6-10.83,1.41-15.78,1.94-4.78,5.77-7.97,10.42-9.98,5.24-2.26,11.02-3.22,16.64-3.91,6.21-.76,12.46-1.11,18.69-1.54,5.64-.39,11.34-.77,16.88-1.95,4.6-.98,9.09-2.66,12.13-6.44,5.32-6.61,5.35-16.99,3.37-24.9-.17-.66-2.4-1.13-2.96-1.31-.24-.08-3.2-.7-3.17-.62,1.73,6.9,1.82,15.31-1.38,21.77-4.98,10.04-17.76,10.41-27.52,11.17-11.88.92-24.41.82-35.82,4.66-4.63,1.55-9.17,3.96-11.88,8.16-2.92,4.53-3.51,10.19-3.23,15.46.31,5.91,1.68,11.75,3.54,17.35.67,2.02,1.4,4.02,2.24,5.97.05.12.11.26.16.4-4.1,3.15-2.36,8.18-2.56,10.91-.28,3.77,8.7,14.79,9.85,19.9,1.15,5.11-1.47,4.45-.1,13.63,1.37,9.18-6.13,13.92,6.68,15.6,3.53.46,5.91.48,7.83.37h0s11.75,1.31,12.14,11.77Z"/>
      <path class="cls-1" d="M793.81,525.58c-1.43-8.45-4.64-15.64-9.35-22.01-4.64-6.28-10.47-10.91-17.43-14.04,8.22-1.56,14.42,2.24,19.98,9.17.94-8.86-2.12-13.78-8.05-16.86-4.4-2.28-9.14-3.33-14-3.83-2.34-.24-4.72-.36-6.76-1.77-1.28-.89-3.2-1.81-2.67-3.65.45-1.54,2.44-1,3.8-1.04,4.49-.12,8.59,1.62,12.96,3.77-2.8-12.91-9.01-17.32-20.02-15.06-2.83.58-5.75,1.12-8.58-.63,2.07-3.53,5.71-3.36,8.76-4.95-3.53-3.08-6.86-3.33-10.54-1.72-2.93,1.28-5.9,2.48-8.93,3.43-3.07.96-6.21,1.38-8.88-1.16-.41-.13-.83-.26-1.24-.39-6.54-11.64-25.73-16.58-37.48-16.29,0,0-9.99-11.41-29.44-9.86-11.11.89-20.33,4.61-27.21,9.72-1.72-1.77-3.72-2.98-5.85-4.04-5.21-2.58-10.89-3.62-16.54-4.71-3.83-.74-7.39-2.02-10.45-4.45-3.46-2.76-3.35-3.77.4-5.92,3.89-2.23,7.98-2.83,12.77-1.34-4.9-4.36-11.89-6.06-19.82-5.54-5.56.37-11.1,2-16.72.67-1.82-.43-4.25-.51-4.7-2.61-.37-1.75,1.49-3.03,2.69-4.28,1.81-1.88,4.25-2.51,6.7-3.13.82-.2,2.08.3,2.45-1.28-7.58-1.54-14.51.27-21.22,3.11-4.16,1.76-8.4,2.64-12.91,2.49-4.92-.16-5.61-1.47-3-5.79,1.94-3.21,5.46-4.58,9.1-6.89-3.35-.83-5.77-.33-8.11.38-6.2,1.89-10.63,6.12-14.46,11.03-3.03,3.88-7.06,6.11-11.83,7.8-.72-6.43,1.56-10.98,6.03-14.76-6.6,2.38-11.6,6.6-15.33,12.29-2.57,3.92-5.37,7.65-8.65,11.01-1.03,1.05-1.82,3.11-3.81,2.27-1.73-.73-2.29-2.56-2.64-4.32-.62-3.18.68-6.2.73-9.44-11.7,8.88-11.73,22.71-15.29,35.4-5.42-4.51-4.4-10.41-4.23-16.67-3.6,3.19-4.65,6.66-4.75,10.52,0,.3,0,.6,0,.9,3.84,4.09,7.81,8.04,11.89,11.88,1.84-3.41,3.77-6.76,5.83-10.05,13.25-21.09,32.55-32.11,57.79-31.76,24.68.34,45.15,11.16,63.25,26.85,2.78,2.41,4.6,4.65,8.99,2.27,3-1.63,6.06-1.16,9.22.05-14.13,12.2-16.16,30.49-.73,38.59,23.16,12.16,68,25.64,67.48,47.9-.52,22.26-57.66,17.8-66.59,6.14-8.92-11.66-.67-26.52,10.85-26.05-17.35-.71-50.88.5-48.34,29.33,2.54,28.83,90.54,23.14,114.19,15.15,23.65-7.99,37.84-29.34,14.17-40.95-23.67-11.61-78.21-25.53-64.94-45.66,13.28-20.13,30.77-14.67,47.74-9.89,4.83,1.36,11,3.4,17.18,5.83.21.19.44.36.69.51,5.45,3.12,8.12,7.85,7.94,14.75-.08,2.98.76,6.02,1.52,8.93,1.1,4.25,3.5,7.2,8.09,8.03-.81-4.08-2.42-7.64-1.71-12.11,4.68,9.05,2.21,21.84,13.73,26.75-.85-6.04,2.55-11.41.2-18.04,4.61,3.86,4.49,8.09,3.63,12.54-.65,3.35-1.63,6.87.9,9.64,5.37,5.9,12.56,6.92,19.72,8.15-2.55-5.82-6.04-10.72-7.7-17.34,9.51,8.94,21.62,12.71,29.5,23.01ZM747.83,454.26c-4.35,1-7.63,6.1-12.69,4.43,4.5-.45,7.7-5.84,12.69-4.43ZM729.08,465.97c.12.06.24.12.36.18,2.68,6.67-.35,14.26,2.27,20.94-4.22-6.56-2-14.04-2.62-21.12ZM740.04,475.38c5.19,8.5,1.39,18.82,4.6,27.76-5.41-8.42-1.29-18.86-4.6-27.76ZM745.69,465.24c6.71-.08,13.98-4.19,19.62,3.28-5.94-5.33-13.27-.88-19.62-3.28ZM755.48,501.67c.33-5.78-.18-11.45-1.61-17.02,2.88,3.81,3.55,8.39,3.35,13.06-.31,6.91.47,13.16,6.43,17.26-5.69-2.44-8.54-6.79-8.17-13.3ZM783.77,491.55c-3.94-8.61-12.51-4.5-18.34-7.83,6.91.39,14.84-2.17,18.34,7.83Z"/>
      <path class="cls-1" d="M424.78,438.18c-5.76.44-10.05,2.55-14.25,6.57-3.59,3.44-6.05,8.05-10.5,10.55.64.68,1.27,1.33,1.9,2,10.49-5.05,19.42-8.32,31.01-4.91,3.56,1.05,5.36,2.26,8.26-1.24,2.36-2.85,6.59-2.89,10.2-2.89-2.55-2.08-5.66-2.83-8.8-2.77-4.56.09-8.85.72-13.07,1.77-2.86.71-5.72,1.49-8.46,1.41-3.11-.09-3.83-.68-2.69-3.69,1.13-3.01,3.47-5.3,6.4-6.8Z"/>
      <path class="cls-1" d="M458.23,464.26c4.38-4.15,9.24-3.98,15.17-.95-1.74-2.68-3.55-3.58-5.3-4.54-7.41-4.07-15.3-2.91-23.61-1.9,4.41,1.95,8.15,4.26,11.78,6.75.56.38,1.12,1.44,1.96.64Z"/>
      <path class="cls-1" d="M646.96,426.81c15.97-3.51,30.08-1.28,41.82,8.11,2.5-.77,5.31-.77,8.02-.02.44.12.88.21,1.33.32.29-1.1,1.46-1.4,2.45-1.73,2.05-.68,4.04.73,6.77.68-4.89-4.73-9.82-7.36-16.06-6.95-2.99.2-5.93-.27-8.71-1.35-1.33-.52-3.46-.59-3.37-2.57.09-1.91,1.91-2.69,3.56-3.06,2.4-.54,4.87-.8,7.81-1.26-6.55-3.29-12.16-3.51-20.39-1.04-4.31,1.29-8.44,3.19-12.97,3.67-1.26.13-2.76.47-3.36-1.08-.62-1.61.5-2.7,1.66-3.55,2.11-1.56,4.63-2.18,7.1-2.92,1.3-.39,2.85-.13,4.2-1.66-8.47-1-15.89.45-22.18,6.03-1.63,1.45-3.03,3.16-4.66,4.61-1.2,1.07-2.59,2.72-4.29,1.2-1.45-1.29-.71-3.11-.05-4.68.96-2.29,3.05-3.74,4.51-5.71-2.78.69-4.85,2.41-6.95,4.08-2.42,1.92-4.79,3.89-7.28,5.71-.52.38-1.18.86-1.84.95-.57.59-1.25,1.27-1.1,1.05-.41.51-.82,1.03-1.21,1.56-.14.19-.28.39-.42.58,8.49,1.65,17.02.93,25.62-.96Z"/>
      <path class="cls-1" d="M539.41,604.87c-3.88-.55-7.44-1.38-10.69-2.44h0s-.04-.01-.06-.02c-8.62-2.83-15.08-7.38-19.66-13.17-.74-.97-1.44-1.97-2.09-2.98-.88-1.37-1.65-2.79-2.33-4.24.02.08.05.16.08.25-1.88-3.91-3.13-8.18-3.83-12.73-.65-4.28-.82-8.8-.51-13.49-4.78-.96-11.27-1.65-12.52-1.75-11.96-.89-25.25,12.01-27.17,24.13.31,3.92.92,7.57,1.83,10.95,1.95,2.85,5.86,3.56,9.99,2.88,5.94-.98,10.35-4.68,12.35-10.62,1.3-3.85.48-7.25-2.15-7.42-6.06.34-4.99,6.04-8.64,6.99-1.07-7.75,1.84-12.7,7.71-13.59,6.38-.97,9.06,3.79,8.69,15.46,17.08,3.8,16.65,15.16-.03,36.04,1.72.65,3.53,1.23,5.4,1.76,1.43-1.99,2.76-4.04,4.16-5.99l9.43-13.13c1.42-1.98,2.87-3.94,4.27-5.93,1.42,1.03,2.99,1.93,4.68,2.7-1.5,2.13-3.06,4.24-4.58,6.36l-9.43,13.13c-.99,1.38-1.95,2.82-2.94,4.25,6.86,1.44,14.52,2.21,22.93,2.38,1.5.03,2.97.02,4.42-.01,50.62-1.09,74.14-37.66,62.79-48.7,0,0-10.42,34.86-52.1,28.92Z"/>
      <path class="cls-1" d="M498.39,599.62c1.1-5.14,1.19-7.82-3.1-10.51-3.7-2.32-7.1-1.06-10.33,2.05-3.12,3-5.17,6.19-4.42,9.84.4,1.94,2.19,3.41,4.15,3.11,2.2-.34,2.82-2.67,3.49-5.56.19-.8,1.36-.76,1.48.05.72,5.04-.64,7.84-3.91,8.82-4.71,1.41-9.4-2.37-9.51-7.29-.02-.84,0-1.73.04-2.66-2.99.52-5.97,1.05-9.29,1.63.66,1.57,1.38,3.12,2.17,4.65,4.06,5.6,9.5,9.97,16.22,13.25,7.51-3.33,11.36-9.73,13-17.36Z"/>
    </g>
    <g>
      <path class="cls-1" d="M271.32,530.42c-.32-.08-.59-.16-.72-.17-.08,0-.16-.02-.38-.07-.19-.04-.45-.11-.63-.13-2.3-.29-4.44-.39-5.37,1.44-.67,1.31-.51,2.76.45,3.97,1.75,2.22,4.95,3.67,7.79,3.53,3.87-.19,6.01-2.23,8.01-5.23.19-.29.36-.71.5-1.07l.17-.41c.15-.35.22-.63.3-.93l.06-.21c.37-1.34.56-2.6.57-3.86,0-.37,0-.67-.04-.94l-.06-.39c-.31-1.9-.58-3.54-1.78-4.96-2.32-2.75-5.26-4.25-8.99-4.59-5.02-.45-9.2.95-13.15,4.41-.43.38-.86.92-1.2,1.35l-.44.55c-.22.27-.37.44-.5.68-4.31,7.52-5.94,16.58-4.25,23.66,3.55,14.84,16.9,20.99,28.21,21.79,9.56.69,23.38-3.97,30.58-8.2,1.46-.86,2.95-1.73,4.5-2.59-4.63-.72-8.94-3.12-12.54-7.92.11,2.02-.17,4.13-1.42,6.38-1.85,3.32-5.02,5.67-9.17,6.8-4.3,1.16-8.64-.26-12.31-1.81-.22-.09-.44-.19-.71-.31-.29-.13-.63-.28-1.04-.46l-.63-.27c-.92-.4-2.32-1.01-3.06-1.28-2.05-.76-4.38-1.08-6.43-1.36l-.19-.03c-2.61-.35-5.07-.68-7.64-2.15-.38-.22-.54-.68-.37-1.09.17-.4.61-.61,1.03-.5,2.28.65,4.41.82,6.91.57.29-.03.89-.11,1.19-.16,1.1-.18,2.18-.26,3.22-.33l.29-.02c.28-.01.54.03.76.08.04-.2.1-.44.22-.68,1.24-2.37,2.31-4.41,4.95-6.2,2.34-1.59,4.85-2.15,7.24-1.63,1.49.33,3.48,1.49,4.22,3,.4.8.56,1.54.1,2.57-.42.91-1.48,1.92-2.72,2.09-.31.07-.69-.01-.9-.25-.23-.25-.29-.64-.15-.95.06-.14.13-.28.19-.41.4-.84.5-1.11.02-1.67-.84-.99-2.03-1.23-3.53-.71-1.61.56-3.65,2.61-4.65,4.67-.11.22-.31.64-.42.9.2.26.4.47.63.7.41.41.8.79,1.22,1.08,2.24,1.52,4.33,2.31,6.4,2.43,3.23.19,6.14-.84,8.21-2.87,2.32-2.28,3.24-4.6,2.92-7.29-.75-6.14-5.22-10.47-9.04-13.55-.41-.33-.8-.56-1.19-.78-.22-.13-.43-.25-.63-.38-.08-.05-.16-.1-.22-.14-.05.12-.1.24-.15.35-.15.3-.3.61-.45.92-.83,1.72-1.69,3.51-3.32,4.85-4.93,4.08-11.06,4.8-16.81,1.97-3.82-1.88-5.29-5.56-5.85-8.32-.52-2.57.95-4.69,2.3-6.24,2.21-2.56,6.81-1.95,8.93-1.27,2.59.83,4.36,1.68,4.6,3.17.06.37-.06.73-.33.98-.6.55-1.66.33-3.32-.1Z"/>
      <path class="cls-1" d="M360.21,532.68c-4.56,5.54-22.2,22.85-38.38,25.32-1.67.72-3.34,1.54-5.01,2.47-.05.03-.13.09-.21.14-.09.06-.17.12-.23.15-10.13,6.04-28.24,12.08-38.74,12.08-7.33,0-14.66-2.46-21.83-8.76-13.63-11.96-11.06-26.92-6.74-39.99.16-.47.42-.93.68-1.38.27-.46.54-.95.62-1.32.1-.5.09-1.27-.03-2.16-.66-4.88-1.6-10-5.14-14.27-3.19-3.85-8.65-6.43-13.67-3.54-2.48,1.43-3.6,4.16-3.01,7.3.54,2.84,2.77,4.96,5.96,5.66.03,0,.16,0,.19.01.39.06,1.25.09,1.52.07.73-.06,2.01-.29,2.44-1.08.76-1.41.28-2.5-1-4.26-.19-.25-.66-.62-1-.89l-.25-.2c-.31-.25-.41-.68-.25-1.04.17-.36.56-.56.95-.49l.15.03c.93.18,1.99.38,2.89,1.24,2.27,2.18,2.87,5.03,1.67,7.82-.78,1.8-2.37,2.56-3.81,3.06-.14.05-.29.08-.43.11.03.1.05.2.08.32,1.25,6.13-.33,11.97-1.92,16.97-.13.41-.54.67-.96.59-.42-.07-.73-.43-.73-.86,0-.59.03-1.18.06-1.77.02-.45.04-.91.05-1.37.01-.61.04-1.21.07-1.81.08-1.79.15-3.47-.12-5.2-.58-3.61-3.03-6.4-5.41-9.1l-.13-.15c-.27-.31-.55-.62-.82-.92-.09-.09-.17-.19-.26-.29-.1,2.62-.07,5.25.13,7.89.19,2.43.51,4.88.93,7.33,0,0,1.2,7.92,3.86,14.28.97,2.63,2.07,5.21,3.31,7.73,0,0,5.99,13.92,14.24,19.93,2.45,2.4,5.07,4.63,7.88,6.58,19.8,13.75,45.5,13.03,66.71,2.96,4.63-2.2,9.08-4.79,13.28-7.72,6.55-4.57,12.55-9.9,17.96-15.77,2.85-3.09,5.54-6.33,8.07-9.7,1.21-1.62,7.97-9.18,7.46-11.03,0,0-3.82-13.76-11.05-4.98Z"/>
      <path class="cls-1" d="M362.41,424.66c-3.55-.67-7.28-.97-11.08-1-9.84-.08-20.18,1.66-29.28,3.44-25.89,5.07-51.31,16.21-70.23,34.95-9.5,9.42-16.83,21.05-20.89,33.7,7.36-2.02,14.59.52,19.87,6.98,3.17,3.89,3.86,7.83,4.66,12.39l.04.25c4.92-3.65,10.11-5.15,15.42-4.47,7.39.95,12.21,4.08,15.18,9.86,1.09,2.12,1.03,4.18.98,6.18-.02.55-.03,1.11-.02,1.68,0,.32-.08.61-.15.86-.02.08-.05.18-.07.26.08.05.2.12.28.17.18.11.37.21.53.34.89.68,1.81,1.22,2.79,1.8,1.2.71,2.45,1.44,3.65,2.46.73.62,1.41,1.28,2.05,1.95-3.38-13.64-.42-29.67,6.21-44.52,0,0,2.29-4.78,3.32-6.77,12.72-23.83,34.28-42.89,52.42-40.91,32.24,3.51,11.75,36.02,17.48,38.94,1.43.73,4.26-1.41,7.15-5.35,13.77-18.78,3.37-48.69-20.32-53.18ZM259.19,463.35c.14-.34.42-.44.82-.45-.28.15-.55.31-.82.45Z"/>
    </g>
  </g>
</svg>